<?xml version="1.0" standalone="no"?><!DOCTYPE svg PUBLIC "-//W3C//DTD SVG 1.1//EN" "http://www.w3.org/Graphics/SVG/1.1/DTD/svg11.dtd"><svg height="1024" node-id="1" sillyvg="true" template-height="1024" template-width="1024" version="1.1" viewBox="0 0 1024 1024" width="1024" xmlns="http://www.w3.org/2000/svg" xmlns:xlink="http://www.w3.org/1999/xlink"><defs node-id="86"></defs><path d="M 0.00 0.00 L 1024.00 0.00 L 1024.00 1024.00 L 0.00 1024.00 Z" fill="none" node-id="88" stroke="none" target-height="1024" target-width="1024" target-x="0" target-y="0"></path><g node-id="253"><path d="M 910.70 563.70 L 897.30 543.90 L 885.90 526.00 L 875.40 508.50 L 866.70 492.70 L 863.10 491.40 L 859.90 490.50 L 857.00 490.20 L 851.40 490.50 L 845.70 492.40 L 843.10 493.90 L 840.80 495.60 L 836.40 499.70 L 835.00 500.50 L 833.40 500.90 L 831.80 500.90 L 830.20 500.40 L 828.70 499.50 L 827.50 498.30 L 826.70 496.80 L 826.40 495.20 L 826.40 493.60 L 826.80 492.00 L 827.70 490.50 L 832.60 485.60 L 835.80 483.30 L 839.60 481.10 L 843.80 479.40 L 848.40 478.00 L 855.10 477.30 L 858.70 477.40 L 852.40 464.10 L 847.30 452.00 L 843.20 441.10 L 839.50 430.00 L 836.70 419.90 L 834.60 410.80 L 833.00 401.50 L 832.00 393.00 L 831.50 385.30 L 831.40 377.50 L 832.30 363.40 L 833.60 353.30 L 840.70 316.50 L 842.00 307.20 L 842.60 294.50 L 842.40 287.70 L 841.80 280.90 L 840.60 273.60 L 838.80 265.80 L 836.60 258.00 L 833.50 249.50 L 829.60 240.20 L 825.30 231.10 L 819.90 221.00 L 813.30 209.80 L 806.30 198.90 L 798.00 186.80 L 788.20 173.40 L 780.20 163.30 L 772.10 153.70 L 763.90 144.70 L 755.50 136.20 L 747.00 128.30 L 738.40 120.80 L 727.50 112.20 L 716.40 104.30 L 705.30 97.10 L 694.00 90.50 L 682.50 84.50 L 670.70 79.10 L 658.80 74.20 L 646.90 69.90 L 634.80 66.20 L 622.60 63.10 L 610.30 60.50 L 597.90 58.40 L 585.60 56.80 L 573.20 55.80 L 560.70 55.20 L 548.30 55.10 L 535.80 55.50 L 523.50 56.40 L 511.20 57.70 L 498.90 59.50 L 486.60 61.70 L 474.60 64.40 L 462.60 67.40 L 450.80 70.90 L 439.10 74.70 L 424.70 80.10 L 410.60 86.00 L 396.80 92.40 L 383.50 99.40 L 372.90 105.40 L 362.70 111.70 L 352.80 118.20 L 343.30 125.10 L 334.00 132.20 L 324.90 139.70 L 316.30 147.40 L 308.00 155.40 L 300.20 163.50 L 292.70 171.90 L 285.60 180.60 L 278.90 189.50 L 272.70 198.50 L 267.00 207.70 L 261.70 217.00 L 256.90 226.70 L 252.60 236.40 L 248.90 246.20 L 245.70 256.20 L 241.00 273.80 L 236.10 288.00 L 233.20 294.60 L 228.80 303.30 L 224.20 311.40 L 219.20 319.10 L 208.40 333.50 L 194.30 349.40 L 170.90 372.90 L 143.20 399.10 L 128.70 413.70 L 117.90 426.10 L 112.90 432.60 L 108.20 439.60 L 103.80 447.00 L 99.80 454.60 L 96.20 462.90 L 92.90 471.90 L 89.00 486.00 L 86.20 502.40 L 83.80 521.90 L 82.20 539.80 L 81.50 551.50 L 81.30 562.70 L 81.50 573.50 L 85.60 575.50 L 93.90 580.50 L 97.80 582.20 L 101.20 583.40 L 104.80 584.10 L 110.80 584.30 L 114.90 583.60 L 118.00 582.50 L 120.80 581.20 L 125.60 577.80 L 128.60 577.10 L 131.60 578.00 L 132.90 579.00 L 134.50 581.70 L 134.60 584.80 L 134.10 586.30 L 133.20 587.70 L 130.80 589.80 L 127.50 592.10 L 123.70 594.00 L 119.10 595.60 L 112.40 596.90 L 104.70 596.90 L 100.70 596.30 L 96.20 595.20 L 92.00 593.60 L 87.40 591.50 L 82.60 588.60 L 83.90 598.50 L 85.90 608.50 L 88.40 618.40 L 93.40 633.10 L 100.00 648.40 L 105.10 658.40 L 111.30 668.90 L 118.40 680.00 L 125.90 690.70 L 134.70 702.20 L 144.70 714.50 L 155.00 726.50 L 166.70 739.40 L 193.40 767.10 L 225.30 798.00 L 251.50 822.30 L 281.90 849.80 L 290.60 857.10 L 299.60 864.00 L 309.10 870.50 L 318.90 876.60 L 329.10 882.30 L 339.50 887.50 L 350.20 892.30 L 361.30 896.80 L 372.60 900.80 L 384.40 904.50 L 396.10 907.80 L 408.10 910.60 L 420.40 913.20 L 432.90 915.30 L 445.70 917.10 L 461.60 918.80 L 477.80 920.00 L 494.30 920.70 L 511.00 920.80 L 527.70 920.40 L 544.40 919.50 L 561.30 918.10 L 578.30 916.20 L 595.20 913.80 L 612.00 911.00 L 628.80 907.70 L 645.50 904.00 L 662.10 899.80 L 678.50 895.20 L 694.60 890.30 L 710.60 884.90 L 726.40 879.00 L 741.80 872.90 L 756.90 866.40 L 771.50 859.50 L 786.00 852.20 L 800.00 844.60 L 813.40 836.70 L 826.30 828.60 L 838.90 819.90 L 850.90 811.10 L 862.20 802.00 L 872.80 792.70 L 881.10 784.90 L 888.90 777.00 L 896.10 769.00 L 902.80 760.90 L 909.10 752.70 L 915.00 744.10 L 920.40 735.40 L 925.10 726.70 L 929.30 717.90 L 933.00 709.10 L 936.20 699.90 L 938.70 690.70 L 940.60 681.50 L 942.00 672.10 L 942.60 662.60 L 942.70 654.70 L 942.30 646.80 L 941.50 638.80 L 940.10 630.60 L 938.30 622.30 L 935.90 613.90 L 933.20 605.90 L 929.90 597.80 L 926.00 589.50 L 921.60 581.10 L 916.50 572.50 L 910.70 563.70 Z" fill="#e61f19" fill-opacity="0.2" fill-rule="nonzero" group-id="1" node-id="92" stroke="none" target-height="865.7" target-width="861.4" target-x="81.3" target-y="55.1"></path></g><path d="M 290.90 672.80 L 280.40 711.10 L 271.60 749.00 L 266.20 777.10 L 264.00 791.00 L 262.20 804.90 L 261.00 817.90 L 260.80 823.70 L 261.30 832.40 L 263.00 838.90 L 264.30 841.50 L 265.70 843.50 L 267.20 845.10 L 271.00 847.30 L 275.30 848.20 L 278.40 848.10 L 285.00 846.70 L 290.00 844.80 L 294.90 842.40 L 303.60 837.10 L 312.20 830.70 L 313.30 812.30 L 316.40 781.90 L 320.00 757.80 L 322.40 745.70 L 325.20 733.80 L 328.40 722.70 L 330.90 715.50 L 333.50 709.00 L 336.30 703.30 L 341.20 695.50 L 343.70 692.40 L 349.10 687.20 L 350.90 685.10 L 352.00 683.30 L 352.50 681.80 L 352.60 680.20 L 352.30 678.80 L 351.50 677.60 L 350.30 676.40 L 348.20 675.20 L 341.90 673.20 L 336.30 672.30 L 329.80 671.80 L 316.30 671.50 L 303.70 671.90 L 290.90 672.80 Z" fill="#ffffff" fill-rule="nonzero" node-id="95" stroke="none" target-height="176.70001" target-width="91.80002" target-x="260.8" target-y="671.5"></path><path d="M 276.30 850.30 L 273.60 850.20 L 271.10 849.60 L 268.70 848.70 L 266.30 847.10 L 264.20 845.10 L 262.40 842.60 L 260.90 839.40 L 259.80 835.50 L 259.00 830.70 L 258.60 824.80 L 258.90 817.70 L 260.10 804.80 L 261.80 791.10 L 264.00 777.20 L 269.40 749.20 L 278.20 711.20 L 287.30 677.40 L 289.20 670.80 L 298.30 670.00 L 310.30 669.40 L 324.10 669.30 L 331.10 669.70 L 341.80 671.10 L 348.40 673.10 L 352.20 675.30 L 354.30 678.00 L 354.80 679.80 L 354.70 681.60 L 354.20 683.60 L 352.90 685.90 L 350.90 688.50 L 345.20 694.00 L 342.80 696.90 L 338.00 704.50 L 332.80 716.50 L 330.30 723.50 L 327.20 734.40 L 324.50 746.10 L 322.20 758.10 L 318.60 781.80 L 315.50 812.00 L 314.30 831.70 L 304.60 839.00 L 295.90 844.20 L 291.10 846.60 L 282.70 849.50 L 276.30 850.30 Z M 292.50 674.80 L 285.90 698.50 L 280.80 718.70 L 272.60 754.70 L 267.80 780.70 L 265.80 793.40 L 264.20 806.10 L 263.10 818.00 L 262.90 824.40 L 263.10 829.60 L 263.70 833.90 L 264.70 837.20 L 265.80 839.90 L 267.20 842.00 L 268.80 843.60 L 270.60 844.80 L 272.80 845.60 L 275.30 846.00 L 278.10 846.00 L 283.70 844.80 L 291.30 841.70 L 300.10 836.80 L 310.10 829.60 L 311.70 806.00 L 315.00 775.30 L 318.80 752.20 L 321.20 740.80 L 324.10 729.60 L 327.30 719.20 L 329.70 712.40 L 335.10 701.00 L 339.90 693.60 L 342.40 690.70 L 347.80 685.40 L 349.50 683.30 L 350.50 680.60 L 350.40 679.70 L 349.50 678.50 L 347.90 677.40 L 345.40 676.30 L 341.10 675.20 L 335.30 674.40 L 329.00 673.90 L 314.50 673.60 L 292.50 674.80 Z" fill="#040000" fill-rule="nonzero" node-id="97" stroke="none" target-height="181" target-width="96.19998" target-x="258.6" target-y="669.3"></path><path d="M 380.40 489.40 L 373.90 491.50 L 363.20 496.40 L 351.70 503.50 L 341.20 511.50 L 336.10 516.10 L 330.70 521.40 L 325.10 527.60 L 319.90 534.10 L 314.60 541.50 L 309.30 549.80 L 302.00 563.20 L 298.50 570.80 L 295.10 579.00 L 291.10 590.00 L 284.00 612.10 L 275.10 642.60 L 268.70 662.40 L 268.20 665.30 L 268.20 668.30 L 268.50 671.30 L 269.30 674.20 L 270.40 677.00 L 272.00 679.60 L 273.80 682.00 L 276.00 684.10 L 278.40 685.80 L 281.00 687.30 L 338.50 705.00 L 341.40 705.70 L 347.10 705.80 L 349.90 705.40 L 353.40 704.20 L 356.70 702.60 L 359.70 700.30 L 363.40 696.10 L 364.80 693.60 L 365.90 690.80 L 393.30 608.90 Z" fill="#040000" fill-rule="nonzero" node-id="99" stroke="none" target-height="216.4" target-width="125.099976" target-x="268.2" target-y="489.4"></path><path d="M 265.30 681.40 L 350.60 672.80 L 346.30 711.20 L 290.90 728.30 L 265.30 728.30 L 265.30 681.40 Z" fill="#ffffff" fill-rule="nonzero" node-id="101" stroke="none" target-height="55.5" target-width="85.30002" target-x="265.3" target-y="672.8"></path><path d="M 291.20 730.40 L 263.10 730.40 L 263.10 679.40 L 353.00 670.40 L 348.30 712.80 Z M 267.40 726.20 L 290.50 726.20 L 344.40 709.60 L 348.20 675.20 L 267.40 683.30 Z" fill="#040000" fill-rule="nonzero" node-id="103" stroke="none" target-height="60" target-width="89.899994" target-x="263.1" target-y="670.4"></path><path d="M 239.70 692.10 L 239.70 758.10 L 265.30 758.10 L 265.30 681.30 L 246.10 684.50 L 244.30 685.00 L 242.70 685.90 L 241.50 687.10 L 240.50 688.60 L 239.90 690.30 L 239.70 692.10 Z" fill="#ffffff" fill-rule="nonzero" node-id="105" stroke="none" target-height="76.79999" target-width="25.59999" target-x="239.7" target-y="681.3"></path><path d="M 267.40 760.30 L 237.50 760.30 L 237.50 692.10 L 237.80 689.80 L 238.60 687.60 L 239.80 685.80 L 241.50 684.20 L 243.40 683.10 L 245.70 682.50 L 267.40 678.80 Z M 241.80 756.00 L 263.10 756.00 L 263.10 683.90 L 245.10 687.00 L 244.00 687.70 L 242.40 689.60 L 241.80 692.10 Z" fill="#040000" fill-rule="nonzero" node-id="107" stroke="none" target-height="81.5" target-width="29.899994" target-x="237.5" target-y="678.8"></path><path d="M 290.90 726.20 L 357.40 711.20 L 367.70 736.10 L 311.30 741.10 L 290.90 726.20 Z" fill="#ffffff" fill-rule="nonzero" node-id="109" stroke="none" target-height="29.899963" target-width="76.80002" target-x="290.9" target-y="711.2"></path><path d="M 310.70 743.30 L 285.80 725.10 L 358.70 708.70 L 370.70 738.00 Z M 295.90 727.20 L 311.90 738.90 L 364.60 734.20 L 356.10 713.70 Z" fill="#040000" fill-rule="nonzero" node-id="111" stroke="none" target-height="34.599976" target-width="84.900024" target-x="285.8" target-y="708.7"></path><path d="M 299.40 736.80 L 389.00 711.20 L 393.30 890.40 L 299.40 924.60 L 299.40 736.80 Z" fill="#040000" fill-rule="nonzero" node-id="113" stroke="none" target-height="213.39996" target-width="93.899994" target-x="299.4" target-y="711.2"></path><path d="M 297.30 927.60 L 297.30 735.20 L 391.10 708.40 L 395.40 891.90 Z M 301.50 738.40 L 301.50 921.50 L 391.10 888.90 L 386.90 714.00 Z" fill="#040000" fill-rule="nonzero" node-id="115" stroke="none" target-height="219.19995" target-width="98.100006" target-x="297.3" target-y="708.4"></path><g node-id="254"><path d="M 120.20 922.60 L 913.80 917.90 L 913.90 922.20 L 120.30 926.90 Z" fill="#040000" fill-rule="nonzero" group-id="2" node-id="119" stroke="none" target-height="9" target-width="793.7" target-x="120.2" target-y="917.9"></path></g><path d="M 581.00 463.00 L 592.50 465.90 L 603.70 469.40 L 614.80 473.40 L 625.60 477.90 L 636.20 483.00 L 646.50 488.70 L 656.60 494.80 L 666.30 501.50 L 655.50 645.60 L 655.50 924.60 L 506.90 924.60" fill="#ffffff" fill-rule="nonzero" node-id="122" stroke="none" target-height="461.59998" target-width="159.4" target-x="506.9" target-y="463"></path><path d="M 655.50 926.70 L 506.90 926.70 L 505.50 926.00 L 504.90 924.60 L 505.50 923.10 L 506.90 922.40 L 653.30 922.40 L 653.30 645.60 L 664.10 502.50 L 654.50 496.00 L 644.70 490.00 L 634.60 484.50 L 624.20 479.60 L 613.60 475.10 L 602.80 471.20 L 591.70 467.80 L 580.50 465.00 L 579.80 464.60 L 579.00 463.30 L 579.40 461.70 L 580.60 460.90 L 581.50 460.80 L 593.00 463.80 L 604.40 467.20 L 615.50 471.30 L 626.50 475.90 L 637.20 481.10 L 647.60 486.70 L 657.70 492.90 L 667.60 499.70 L 668.30 500.50 L 668.50 501.60 L 657.60 645.80 L 657.60 924.60 L 657.00 926.10 L 655.50 926.70 Z" fill="#040000" fill-rule="nonzero" node-id="124" stroke="none" target-height="465.90002" target-width="163.6" target-x="504.9" target-y="460.8"></path><path d="M 506.90 924.60 L 333.50 920.30 L 332.50 894.60 L 331.80 865.30 L 331.40 827.40 L 331.80 782.80 L 333.40 733.30 L 334.70 707.40 L 336.50 680.80 L 338.80 654.00 L 343.80 609.20 L 348.90 574.10 L 352.00 556.70 L 359.00 523.60 L 383.20 481.20 L 390.40 477.10 L 397.70 473.30 L 405.20 470.00 L 412.80 467.10 L 420.90 464.50 L 429.40 462.30 L 438.00 460.60 L 447.40 459.20 L 457.50 458.10 L 467.70 457.50 L 479.00 457.20 L 532.20 457.20 L 542.10 457.60 L 561.60 459.50 L 581.00 463.00" fill="#ffffff" fill-rule="nonzero" node-id="126" stroke="none" target-height="467.39996" target-width="249.6" target-x="331.4" target-y="457.2"></path><path d="M 506.90 926.70 L 333.50 922.40 L 332.00 921.80 L 331.40 920.40 L 330.30 893.60 L 329.60 863.90 L 329.40 804.50 L 330.40 757.10 L 332.80 705.90 L 334.60 679.30 L 336.80 652.60 L 341.80 608.00 L 346.90 573.20 L 350.00 555.90 L 356.90 523.10 L 381.30 480.20 L 382.10 479.40 L 389.70 475.00 L 397.50 471.10 L 405.30 467.70 L 413.20 464.70 L 421.50 462.10 L 430.10 460.00 L 438.90 458.30 L 448.30 456.90 L 458.30 455.90 L 479.50 455.00 L 532.30 455.10 L 552.10 456.20 L 571.70 458.90 L 581.50 460.90 L 582.70 461.80 L 582.90 463.40 L 582.10 464.70 L 580.50 465.00 L 561.40 461.60 L 542.00 459.70 L 532.30 459.30 L 479.80 459.30 L 459.10 460.10 L 449.30 461.10 L 440.10 462.40 L 431.60 464.00 L 423.20 466.10 L 415.10 468.60 L 407.40 471.50 L 399.80 474.80 L 392.30 478.50 L 384.80 482.80 L 361.00 524.40 L 357.20 541.40 L 353.70 559.00 L 347.80 595.50 L 343.10 632.80 L 340.30 661.00 L 338.10 689.00 L 336.40 716.80 L 335.20 743.60 L 333.80 794.60 L 333.60 839.70 L 334.10 876.80 L 335.60 918.20 L 507.00 922.40 L 508.40 923.10 L 509.00 924.60 L 508.40 926.00 L 506.90 926.70 Z" fill="#040000" fill-rule="nonzero" node-id="128" stroke="none" target-height="471.7" target-width="253.50003" target-x="329.4" target-y="455"></path><path d="M 354.90 485.50 L 358.50 499.50 L 365.90 523.20 L 371.40 538.90 L 377.70 555.40 L 385.60 574.30 L 391.40 587.00 L 405.10 614.70 L 412.70 628.70 L 421.10 643.10 L 430.20 657.90 L 445.00 679.60 L 453.10 690.50 L 461.70 701.50 L 470.50 712.10 L 479.70 722.60 L 489.50 733.00 L 499.80 743.30 L 510.40 753.10 L 521.50 762.70 L 533.10 772.00 L 545.20 781.00 L 555.10 787.80 L 565.40 794.30 L 576.00 800.60 L 587.00 806.60 L 598.40 812.30 L 609.80 817.50 L 621.70 822.40 L 634.00 827.00 L 646.70 831.20 L 659.90 835.00 L 679.10 801.30 L 667.50 797.50 L 658.00 794.00 L 647.60 789.70 L 625.60 779.40 L 605.10 768.40 L 594.50 762.10 L 583.30 755.00 L 571.50 747.00 L 560.00 738.60 L 548.10 729.30 L 535.80 719.00 L 526.90 711.10 L 509.00 693.40 L 499.90 683.70 L 491.30 673.90 L 482.70 663.40 L 474.20 652.20 L 465.80 640.40 L 457.80 628.50 L 450.10 615.90 L 442.60 602.50 L 435.30 588.40 L 429.90 577.20 L 419.80 553.20 L 415.00 540.40 L 410.50 527.10 L 406.50 513.90 L 402.70 500.20 L 399.20 486.00 L 396.10 471.10 L 393.30 455.70 L 387.50 455.50 L 378.90 456.50 L 374.10 457.80 L 370.90 459.00 L 364.80 462.60 L 362.10 465.00 L 359.80 467.90 L 357.70 471.50 L 355.70 477.50 L 354.90 485.50 Z" fill="#ffffff" fill-rule="nonzero" node-id="130" stroke="none" target-height="379.5" target-width="324.19998" target-x="354.9" target-y="455.5"></path><path d="M 659.80 837.10 L 646.70 833.40 L 634.60 829.50 L 622.90 825.20 L 611.60 820.60 L 600.60 815.60 L 587.10 808.90 L 574.00 801.80 L 561.60 794.30 L 549.70 786.50 L 538.00 778.10 L 526.80 769.60 L 516.20 760.80 L 506.00 751.80 L 496.10 742.40 L 486.70 732.90 L 469.30 713.80 L 458.40 700.70 L 448.40 687.70 L 439.10 674.90 L 430.30 661.80 L 422.30 649.20 L 415.10 637.20 L 400.80 611.10 L 388.70 586.10 L 378.60 563.20 L 372.10 546.70 L 362.20 518.80 L 358.80 508.00 L 352.80 486.00 L 353.10 480.40 L 353.90 475.90 L 355.20 471.90 L 357.00 468.30 L 359.30 465.00 L 362.10 462.20 L 367.20 458.50 L 374.00 455.60 L 378.10 454.50 L 385.50 453.50 L 393.50 453.50 L 394.20 453.70 L 395.20 454.60 L 401.00 483.90 L 404.20 497.40 L 411.50 522.80 L 416.70 538.50 L 422.30 553.40 L 428.10 567.60 L 434.30 581.00 L 441.00 594.40 L 447.80 607.10 L 454.80 619.20 L 462.00 630.50 L 469.60 641.80 L 484.90 662.50 L 492.60 671.90 L 503.30 684.20 L 513.90 695.40 L 524.30 705.60 L 535.00 715.50 L 545.30 724.30 L 555.10 732.20 L 566.00 740.50 L 586.70 754.70 L 606.80 766.90 L 629.60 779.00 L 641.40 784.60 L 652.60 789.40 L 669.50 795.90 L 680.50 799.70 L 681.10 800.50 L 681.20 801.40 L 681.00 802.30 L 661.70 836.00 L 660.90 836.80 L 659.80 837.10 Z M 357.00 485.30 L 361.60 502.10 L 369.50 526.70 L 375.30 542.50 L 381.80 559.00 L 389.90 577.80 L 395.70 590.40 L 409.50 617.60 L 417.20 631.40 L 425.50 645.50 L 434.70 659.90 L 444.30 674.10 L 454.60 688.30 L 465.80 702.50 L 474.50 712.90 L 483.60 723.10 L 493.20 733.20 L 503.30 743.20 L 513.60 752.70 L 524.50 762.00 L 535.80 771.10 L 547.60 779.80 L 559.80 788.10 L 572.40 795.90 L 585.60 803.30 L 599.30 810.30 L 610.50 815.40 L 621.90 820.20 L 633.80 824.60 L 646.10 828.70 L 658.80 832.50 L 675.90 802.50 L 663.90 798.40 L 655.20 795.10 L 643.70 790.30 L 631.50 784.70 L 607.60 772.20 L 586.20 759.40 L 575.40 752.30 L 564.20 744.40 L 552.50 735.50 L 542.60 727.60 L 532.30 718.70 L 521.50 708.80 L 511.00 698.50 L 500.40 687.20 L 489.60 674.90 L 474.10 655.40 L 466.40 644.70 L 458.70 633.40 L 451.50 622.00 L 444.50 609.90 L 437.60 597.10 L 430.80 583.70 L 424.70 570.20 L 418.70 556.00 L 413.10 541.00 L 407.80 525.30 L 404.00 512.80 L 397.20 486.30 L 391.50 457.60 L 383.40 457.90 L 375.90 459.40 L 369.50 462.00 L 364.90 465.30 L 362.60 467.80 L 360.60 470.50 L 359.10 473.60 L 358.00 477.00 L 357.30 480.90 L 357.00 485.30 Z" fill="#040000" fill-rule="nonzero" node-id="132" stroke="none" target-height="383.59998" target-width="328.40002" target-x="352.8" target-y="453.5"></path><path d="M 610.90 779.50 L 617.80 774.80 L 630.20 767.80 L 644.70 761.10 L 658.80 756.00 L 674.50 751.70 L 683.30 749.90 L 692.20 748.60 L 701.60 747.70 L 711.60 747.20 L 726.80 747.70 L 743.10 749.60 L 768.70 779.50 L 675.10 814.60 L 619.40 835.00 L 610.40 833.30 L 606.50 832.20 L 602.10 830.60 L 597.90 828.50 L 594.00 825.90 L 591.60 823.90 L 589.60 821.60 L 587.90 818.90 L 586.70 816.10 L 586.00 812.90 L 585.80 809.20 L 586.30 805.80 L 587.20 802.70 L 588.60 799.70 L 590.50 796.90 L 592.60 794.40 L 595.10 792.20 Z" fill="#040000" fill-rule="nonzero" node-id="134" stroke="none" target-height="87.79999" target-width="182.90002" target-x="585.8" target-y="747.2"></path><path d="M 585.30 805.10 L 580.90 827.90 L 578.40 846.80 L 576.80 868.80 L 576.60 880.40 L 577.20 895.90 L 579.00 911.40 L 580.40 918.80 L 582.20 925.90 L 584.50 932.90 L 587.20 939.40 L 590.40 945.40 L 593.20 949.60 L 596.50 953.50 L 600.10 956.90 L 604.10 959.90 L 608.40 962.40 L 612.90 964.40 L 616.50 965.50 L 623.90 966.70 L 631.10 966.50 L 634.50 965.70 L 637.70 964.60 L 640.70 963.00 L 633.50 948.00 L 626.90 931.40 L 623.70 921.60 L 620.60 910.40 L 617.30 894.80 L 616.10 886.50 L 615.30 878.10 L 615.00 869.50 L 615.20 860.90 L 616.50 847.90 L 619.40 835.00 L 610.50 832.00 L 606.60 830.30 L 598.10 825.40 L 594.10 822.30 L 591.70 820.00 L 587.80 814.70 L 586.40 811.80 L 585.60 808.60 L 585.30 805.10 Z" fill="#ffffff" fill-rule="nonzero" node-id="136" stroke="none" target-height="161.60004" target-width="64.10004" target-x="576.6" target-y="805.1"></path><path d="M 626.20 968.90 L 621.20 968.60 L 616.30 967.70 L 611.50 966.20 L 607.00 964.10 L 602.70 961.60 L 598.60 958.50 L 594.90 954.90 L 591.50 950.90 L 588.50 946.50 L 585.30 940.40 L 582.60 933.90 L 580.30 927.00 L 578.40 919.90 L 577.00 912.60 L 575.80 905.00 L 574.60 889.60 L 574.50 870.40 L 575.10 859.30 L 577.10 838.80 L 579.70 821.80 L 583.20 804.60 L 584.00 803.30 L 585.50 803.00 L 586.30 803.20 L 587.20 804.30 L 587.70 808.30 L 588.50 811.20 L 589.80 813.90 L 593.40 818.80 L 595.70 820.90 L 599.50 823.80 L 603.50 826.30 L 611.30 830.00 L 619.90 832.90 L 620.70 833.30 L 621.50 834.70 L 618.70 848.20 L 617.40 860.90 L 617.20 869.30 L 617.50 877.70 L 618.30 885.90 L 619.50 894.10 L 622.70 909.50 L 625.70 920.50 L 628.90 930.20 L 635.30 946.80 L 642.80 962.70 L 642.50 964.20 L 641.90 964.80 L 638.60 966.50 L 635.10 967.80 L 631.50 968.60 L 627.80 968.90 Z M 585.40 814.80 L 582.70 830.30 L 580.20 851.10 L 579.30 862.60 L 578.80 874.90 L 579.10 891.40 L 580.70 908.00 L 582.00 915.90 L 583.80 923.50 L 587.40 934.50 L 592.20 944.30 L 595.00 948.50 L 598.20 952.20 L 601.70 955.50 L 605.50 958.30 L 609.60 960.60 L 613.90 962.50 L 618.30 963.80 L 622.90 964.50 L 627.60 964.60 L 631.20 964.30 L 634.60 963.50 L 637.90 962.20 L 630.20 945.70 L 626.60 936.50 L 623.20 926.70 L 619.80 915.30 L 616.10 899.20 L 614.60 890.50 L 613.60 881.70 L 613.00 872.80 L 613.00 863.70 L 614.10 850.10 L 616.80 836.40 L 605.90 832.30 L 601.10 829.90 L 596.50 827.00 L 592.10 823.50 L 589.50 820.80 L 587.30 817.90 L 585.40 814.80 Z" fill="#040000" fill-rule="nonzero" node-id="138" stroke="none" target-height="165.90002" target-width="68.29999" target-x="574.5" target-y="803"></path><path d="M 640.70 963.00 L 656.20 953.60 L 673.60 943.70 L 695.80 932.10 L 721.50 920.10 L 735.20 914.40 L 749.40 908.90 L 753.50 907.10 L 757.20 904.90 L 760.60 902.30 L 763.60 899.20 L 766.20 895.90 L 768.40 892.30 L 770.10 888.50 L 771.40 884.40 L 772.10 880.20 L 772.40 876.00 L 772.10 871.60 L 768.90 857.50 L 765.50 839.30 L 763.80 824.00 L 763.50 816.30 L 763.50 808.60 L 764.00 801.10 L 765.00 793.60 L 766.60 786.40 L 768.70 779.50 L 675.10 814.70 L 619.40 835.00 L 616.90 849.80 L 615.70 866.20 L 615.60 875.80 L 616.20 886.70 L 618.10 901.80 L 619.70 909.90 L 621.70 917.90 L 624.30 926.10 L 627.40 934.40 L 633.20 946.60 L 640.70 958.70" fill="#ffffff" fill-rule="nonzero" node-id="140" stroke="none" target-height="183.5" target-width="156.80005" target-x="615.6" target-y="779.5"></path><path d="M 640.70 965.10 L 640.00 965.00 L 639.00 964.20 L 638.60 962.90 L 639.00 961.60 L 640.20 960.80 L 639.00 959.90 L 631.50 947.70 L 625.60 935.50 L 622.40 927.10 L 619.80 918.90 L 617.80 910.80 L 616.20 902.70 L 614.20 887.40 L 613.60 876.30 L 613.60 866.60 L 614.80 849.90 L 616.40 838.70 L 617.30 834.40 L 617.80 833.50 L 618.70 833.00 L 673.90 812.80 L 768.80 777.40 L 770.20 778.00 L 770.80 779.40 L 768.60 787.00 L 767.10 794.00 L 766.10 801.40 L 765.70 808.90 L 765.60 816.40 L 766.00 824.10 L 767.10 835.40 L 768.80 846.40 L 774.20 871.30 L 774.60 875.90 L 774.30 880.50 L 773.50 884.90 L 772.20 889.20 L 770.30 893.30 L 768.00 897.10 L 765.30 900.60 L 762.10 903.90 L 758.50 906.60 L 754.50 909.00 L 722.60 921.90 L 697.20 933.80 L 675.10 945.30 L 657.70 955.20 L 641.90 964.70 L 640.70 965.10 Z M 621.20 836.60 L 618.90 851.80 L 618.10 860.80 L 617.80 870.30 L 618.10 881.60 L 618.60 889.20 L 621.10 905.80 L 623.00 914.30 L 625.50 922.90 L 628.70 931.70 L 631.40 938.20 L 634.60 944.60 L 638.30 951.00 L 642.50 957.50 L 642.80 959.10 L 653.90 952.50 L 671.40 942.50 L 694.00 930.70 L 720.20 918.30 L 734.20 912.40 L 752.60 905.20 L 756.10 903.10 L 759.20 900.60 L 762.10 897.80 L 764.50 894.70 L 766.60 891.30 L 768.20 887.70 L 769.30 883.90 L 770.10 879.90 L 770.30 875.90 L 770.00 871.90 L 764.80 848.10 L 763.10 837.50 L 761.90 826.50 L 761.40 819.00 L 761.60 804.30 L 762.40 797.00 L 763.60 789.90 L 765.30 783.10 L 677.50 816.00 L 621.20 836.60 Z" fill="#040000" fill-rule="nonzero" node-id="142" stroke="none" target-height="187.69995" target-width="161" target-x="613.6" target-y="777.4"></path><path d="M 458.80 416.20 L 459.10 427.10 L 458.90 432.10 L 458.20 437.70 L 457.10 443.50 L 455.40 449.20 L 453.80 452.80 L 451.90 456.20 L 449.60 459.40 L 445.50 463.40 L 440.20 466.40 L 446.00 469.90 L 456.10 474.60 L 462.90 477.00 L 473.00 479.40 L 484.70 480.80 L 491.00 480.80 L 497.90 480.30 L 504.60 479.30 L 511.70 477.70 L 519.30 475.30 L 524.80 473.10 L 536.40 467.10 L 542.60 463.20 L 539.20 460.70 L 534.30 455.30 L 529.90 448.00 L 526.70 440.00 L 524.50 430.40 L 523.70 424.40 L 523.40 418.40 L 523.40 411.50 L 524.00 403.60 Z" fill="#ffffff" fill-rule="nonzero" node-id="144" stroke="none" target-height="77.19998" target-width="102.39996" target-x="440.2" target-y="403.6"></path><path d="M 488.80 482.80 L 482.90 482.60 L 472.30 481.30 L 464.90 479.70 L 458.60 477.70 L 448.10 473.40 L 441.40 469.70 L 438.90 468.10 L 438.20 467.20 L 438.10 466.10 L 438.50 465.10 L 442.80 462.60 L 445.70 460.50 L 448.10 457.80 L 450.20 454.90 L 452.00 451.70 L 453.40 448.20 L 455.10 442.70 L 456.10 437.30 L 456.70 431.90 L 457.00 427.10 L 456.70 415.60 L 457.60 414.40 L 458.40 414.10 L 523.60 401.50 L 524.50 401.60 L 525.40 402.00 L 526.00 402.80 L 526.10 403.80 L 525.50 412.80 L 525.60 420.50 L 526.20 427.00 L 527.30 433.50 L 528.70 438.90 L 530.30 443.40 L 534.20 451.20 L 539.10 457.60 L 544.40 462.10 L 544.70 463.10 L 544.50 464.20 L 543.80 465.00 L 537.00 469.30 L 530.50 472.80 L 524.20 475.60 L 517.80 478.00 L 511.60 479.90 L 505.70 481.20 L 499.80 482.10 L 488.80 482.80 Z M 444.50 466.60 L 450.80 470.00 L 457.40 472.80 L 464.10 475.10 L 471.10 476.90 L 478.10 478.00 L 485.00 478.60 L 491.80 478.70 L 498.60 478.10 L 505.40 477.10 L 512.10 475.40 L 518.70 473.30 L 525.40 470.50 L 532.00 467.20 L 538.80 463.20 L 536.40 461.00 L 531.10 454.50 L 526.80 446.50 L 525.10 442.00 L 523.50 436.50 L 521.60 425.00 L 521.30 413.20 L 521.60 406.30 L 461.10 417.90 L 461.30 425.00 L 460.70 435.50 L 459.80 441.20 L 458.30 447.20 L 457.00 451.00 L 453.20 458.20 L 450.80 461.40 L 447.90 464.20 L 444.50 466.60 Z" fill="#040000" fill-rule="nonzero" node-id="146" stroke="none" target-height="81.29999" target-width="106.600006" target-x="438.1" target-y="401.5"></path><path d="M 391.10 292.80 L 420.80 292.80 L 420.80 342.50 L 391.10 342.50 L 387.70 342.30 L 384.50 341.60 L 381.50 340.50 L 378.60 339.10 L 376.00 337.30 L 373.60 335.20 L 371.50 332.80 L 369.70 330.20 L 368.20 327.30 L 367.20 324.30 L 366.50 321.10 L 366.30 317.60 L 366.50 314.20 L 367.20 311.00 L 368.20 308.00 L 369.70 305.10 L 371.50 302.50 L 373.60 300.10 L 376.00 298.00 L 378.60 296.20 L 381.50 294.70 L 384.50 293.70 L 387.70 293.00 L 391.10 292.80 Z" fill="#ffffff" fill-rule="nonzero" node-id="148" stroke="none" target-height="49.700012" target-width="54.5" target-x="366.3" target-y="292.8"></path><path d="M 420.80 344.60 L 390.00 344.60 L 386.50 344.40 L 383.10 343.70 L 380.00 342.60 L 377.00 341.10 L 374.20 339.20 L 371.80 337.10 L 369.60 334.60 L 367.70 331.90 L 366.20 328.90 L 365.10 325.70 L 364.40 322.40 L 364.20 318.80 L 364.40 312.90 L 365.10 309.60 L 366.20 306.40 L 367.70 303.40 L 369.60 300.70 L 371.80 298.20 L 374.20 296.00 L 377.00 294.20 L 380.00 292.70 L 383.10 291.60 L 386.50 290.90 L 390.00 290.70 L 420.80 290.70 L 421.70 290.80 L 422.80 291.90 L 423.00 342.50 L 422.30 344.00 L 420.80 344.60 Z M 390.00 294.90 L 387.00 295.10 L 381.60 296.60 L 379.10 297.90 L 376.10 300.00 L 373.50 302.60 L 371.40 305.60 L 370.10 308.10 L 368.70 313.50 L 368.50 316.50 L 368.70 321.80 L 369.20 324.60 L 371.40 329.70 L 373.50 332.70 L 376.10 335.30 L 379.10 337.40 L 381.60 338.70 L 387.00 340.10 L 390.00 340.40 L 418.70 340.40 L 418.70 294.90 Z" fill="#040000" fill-rule="nonzero" node-id="150" stroke="none" target-height="53.899994" target-width="58.799988" target-x="364.2" target-y="290.7"></path><g node-id="255"><path d="M 580.90 342.50 L 551.20 342.50 L 551.20 292.80 L 580.90 292.80 L 584.30 293.00 L 587.50 293.70 L 590.50 294.70 L 593.40 296.20 L 596.00 298.00 L 598.40 300.10 L 600.50 302.50 L 602.30 305.10 L 603.80 308.00 L 604.80 311.00 L 605.50 314.20 L 605.70 317.60 L 605.50 321.10 L 604.80 324.30 L 603.80 327.30 L 602.30 330.20 L 600.50 332.80 L 598.40 335.20 L 596.00 337.30 L 593.40 339.10 L 590.50 340.50 L 587.50 341.60 L 584.30 342.30 L 580.90 342.50 Z" fill="#ffffff" fill-rule="nonzero" group-id="3" node-id="154" stroke="none" target-height="49.700012" target-width="54.5" target-x="551.2" target-y="292.8"></path></g><path d="M 582.00 344.60 L 551.20 344.60 L 550.30 344.50 L 549.20 343.30 L 549.00 292.80 L 549.60 291.30 L 551.10 290.70 L 582.00 290.70 L 585.50 290.90 L 588.90 291.60 L 592.00 292.70 L 595.00 294.20 L 597.80 296.00 L 600.20 298.20 L 602.40 300.70 L 604.30 303.40 L 605.80 306.40 L 606.90 309.60 L 607.60 312.90 L 607.80 316.50 L 607.60 322.40 L 606.90 325.70 L 605.80 328.90 L 604.30 331.90 L 602.40 334.60 L 600.20 337.10 L 597.80 339.20 L 595.00 341.10 L 592.00 342.60 L 588.90 343.70 L 585.50 344.40 L 582.00 344.60 Z M 553.30 340.40 L 582.00 340.40 L 585.00 340.10 L 590.40 338.70 L 592.90 337.40 L 595.90 335.30 L 598.50 332.70 L 600.60 329.70 L 602.80 324.60 L 603.30 321.80 L 603.60 316.50 L 602.80 310.70 L 600.60 305.60 L 598.50 302.60 L 595.90 300.00 L 592.90 297.90 L 590.40 296.60 L 585.00 295.10 L 582.00 294.90 L 553.30 294.90 Z" fill="#040000" fill-rule="nonzero" node-id="157" stroke="none" target-height="53.899994" target-width="58.799988" target-x="549" target-y="290.7"></path><path d="M 400.60 210.30 L 571.40 210.30 L 571.20 340.70 L 569.70 352.40 L 568.30 358.10 L 564.50 369.30 L 559.40 379.80 L 556.30 384.80 L 549.10 394.20 L 545.00 398.60 L 540.60 402.70 L 531.20 409.80 L 526.20 412.90 L 515.70 418.10 L 504.60 421.90 L 493.00 424.20 L 481.20 425.00 L 474.50 424.70 L 468.00 423.90 L 461.80 422.70 L 455.70 420.90 L 449.70 418.60 L 444.10 416.00 L 438.70 412.90 L 433.60 409.40 L 428.70 405.60 L 424.20 401.40 L 420.00 396.90 L 416.10 392.00 L 412.60 386.90 L 409.60 381.50 L 406.90 375.80 L 404.70 369.90 L 402.90 363.80 L 401.60 357.60 L 400.80 351.10 L 400.60 344.40 L 400.60 210.40 Z" fill="#ffffff" fill-rule="nonzero" node-id="159" stroke="none" target-height="214.7" target-width="170.80002" target-x="400.6" target-y="210.3"></path><path d="M 488.90 427.10 L 476.00 426.80 L 469.30 426.00 L 462.70 424.60 L 456.30 422.80 L 450.10 420.40 L 444.20 417.60 L 438.50 414.40 L 433.10 410.70 L 428.00 406.70 L 423.30 402.30 L 418.90 397.50 L 414.80 392.40 L 411.10 387.00 L 407.90 381.40 L 405.10 375.40 L 402.80 369.20 L 400.90 362.80 L 399.60 356.30 L 398.70 349.50 L 398.40 342.50 L 398.40 210.30 L 399.10 208.80 L 400.60 208.20 L 571.40 208.20 L 572.20 208.30 L 573.40 209.50 L 573.50 342.50 L 573.20 349.50 L 572.40 356.30 L 571.00 362.80 L 569.20 369.20 L 566.80 375.40 L 564.00 381.40 L 560.80 387.00 L 557.20 392.40 L 553.10 397.50 L 548.70 402.30 L 544.00 406.70 L 538.90 410.70 L 533.50 414.40 L 527.80 417.60 L 521.90 420.40 L 515.60 422.80 L 509.30 424.60 L 502.70 426.00 L 495.90 426.80 L 488.90 427.10 Z M 402.70 212.50 L 402.70 342.50 L 403.00 349.10 L 403.80 355.60 L 405.00 361.80 L 406.80 367.90 L 409.10 373.80 L 411.70 379.40 L 414.80 384.80 L 418.20 389.90 L 422.10 394.80 L 426.30 399.30 L 430.80 403.40 L 435.60 407.30 L 440.80 410.80 L 446.10 413.80 L 451.80 416.50 L 457.70 418.70 L 463.70 420.50 L 470.00 421.70 L 476.40 422.50 L 483.10 422.80 L 495.60 422.50 L 502.00 421.70 L 508.20 420.50 L 514.30 418.70 L 520.20 416.50 L 525.80 413.80 L 531.20 410.80 L 536.30 407.30 L 541.20 403.40 L 545.70 399.30 L 549.90 394.80 L 553.70 389.90 L 557.20 384.80 L 560.20 379.40 L 562.90 373.80 L 565.10 367.80 L 566.90 361.80 L 568.20 355.60 L 569.00 349.10 L 569.30 342.50 L 569.30 212.50 Z" fill="#040000" fill-rule="nonzero" node-id="161" stroke="none" target-height="218.90001" target-width="175.1" target-x="398.4" target-y="208.2"></path><path d="M 592.30 180.40 L 592.20 174.40 L 591.40 170.90 L 590.20 167.60 L 588.50 164.50 L 586.50 161.70 L 584.10 159.10 L 581.30 156.80 L 578.30 154.90 L 575.00 153.40 L 571.50 152.20 L 567.80 151.50 L 563.80 151.30 L 560.00 151.50 L 556.40 152.20 L 552.80 153.30 L 546.40 148.20 L 538.90 144.10 L 530.40 141.20 L 521.30 139.70 L 516.40 139.50 L 511.40 139.70 L 506.70 140.30 L 497.60 142.70 L 489.50 146.40 L 485.80 148.70 L 482.40 151.30 L 479.30 154.10 L 473.00 149.40 L 469.60 147.50 L 462.30 144.70 L 454.60 143.30 L 450.60 143.10 L 442.30 143.90 L 434.70 146.10 L 429.90 148.30 L 425.60 151.10 L 421.60 154.30 L 419.00 157.00 L 414.60 163.10 L 412.80 166.40 L 408.80 165.00 L 404.80 164.20 L 400.60 163.90 L 396.50 164.20 L 392.70 164.90 L 389.10 166.10 L 385.60 167.70 L 382.40 169.70 L 379.40 172.10 L 376.70 174.80 L 374.40 177.80 L 372.30 181.10 L 370.60 184.70 L 369.30 188.40 L 368.50 192.40 L 364.70 194.40 L 361.30 196.70 L 358.20 199.30 L 355.50 202.30 L 353.30 205.50 L 351.40 208.90 L 350.10 212.60 L 349.20 216.40 L 348.90 220.40 L 349.20 224.00 L 349.80 227.30 L 350.80 230.50 L 352.20 233.60 L 356.00 239.20 L 361.00 244.00 L 364.90 246.60 L 369.20 248.80 L 373.90 250.40 L 375.80 254.50 L 378.00 258.20 L 380.70 261.60 L 383.70 264.60 L 387.10 267.20 L 390.80 269.40 L 394.80 271.20 L 398.90 272.40 L 403.30 273.20 L 407.80 273.30 L 412.10 273.00 L 416.30 272.10 L 420.40 270.70 L 424.20 268.90 L 427.80 266.60 L 431.20 263.80 L 434.10 260.70 L 436.80 257.10 L 440.80 259.30 L 444.90 261.00 L 449.10 262.30 L 453.50 263.00 L 457.80 263.30 L 462.20 263.10 L 466.50 262.40 L 470.70 261.20 L 474.80 259.60 L 478.60 257.50 L 482.30 255.00 L 485.80 252.00 L 488.50 255.40 L 491.40 258.60 L 494.60 261.40 L 498.20 263.80 L 501.90 265.90 L 505.80 267.50 L 509.90 268.70 L 514.20 269.50 L 518.70 269.80 L 522.60 269.50 L 530.10 268.00 L 537.10 265.00 L 540.40 263.00 L 546.40 258.10 L 554.40 261.80 L 562.80 264.10 L 567.20 264.70 L 571.60 264.90 L 576.60 264.60 L 581.30 263.90 L 585.90 262.90 L 590.20 261.40 L 594.50 259.50 L 598.40 257.20 L 602.00 254.70 L 605.40 251.80 L 608.50 248.70 L 611.30 245.30 L 613.70 241.60 L 615.70 237.70 L 617.30 233.70 L 618.50 229.40 L 619.20 225.00 L 619.40 220.40 L 619.20 216.00 L 618.50 211.80 L 617.40 207.70 L 615.90 203.80 L 611.90 196.50 L 609.30 193.20 L 603.30 187.20 L 596.20 182.40 L 592.30 180.40 Z" fill="#040000" fill-rule="nonzero" node-id="163" stroke="none" target-height="133.79999" target-width="270.50003" target-x="348.9" target-y="139.5"></path><path d="M 380.40 314.70 L 386.10 314.10 L 388.60 314.20 L 394.10 315.40 L 396.60 316.70 L 398.10 317.90 L 400.60 321.10" fill="#ffffff" fill-rule="nonzero" node-id="165" stroke="none" target-height="7" target-width="20.200012" target-x="380.4" target-y="314.1"></path><path d="M 400.60 323.30 L 399.40 323.00 L 396.60 319.30 L 393.10 317.30 L 388.20 316.30 L 386.00 316.30 L 380.80 316.80 L 379.20 316.50 L 378.30 315.20 L 378.30 314.30 L 379.10 313.00 L 379.90 312.60 L 383.90 312.10 L 389.40 312.20 L 392.40 312.70 L 395.30 313.60 L 398.10 315.10 L 399.70 316.40 L 402.50 320.20 L 402.70 321.00 L 402.20 322.50 L 400.60 323.30 Z" fill="#040000" fill-rule="nonzero" node-id="167" stroke="none" target-height="11.199982" target-width="24.400024" target-x="378.3" target-y="312.1"></path><path d="M 591.60 314.70 L 585.90 314.10 L 583.40 314.20 L 577.90 315.40 L 575.40 316.70 L 573.90 317.90 L 571.40 321.10" fill="#ffffff" fill-rule="nonzero" node-id="169" stroke="none" target-height="7" target-width="20.199951" target-x="571.4" target-y="314.1"></path><path d="M 571.40 323.30 L 569.80 322.60 L 569.30 321.00 L 570.70 318.10 L 573.90 315.10 L 576.60 313.60 L 579.60 312.70 L 585.40 312.00 L 592.10 312.60 L 592.80 313.00 L 593.70 314.30 L 593.30 315.90 L 592.00 316.80 L 583.70 316.40 L 578.90 317.30 L 575.40 319.30 L 572.50 322.90 L 571.40 323.30 Z" fill="#040000" fill-rule="nonzero" node-id="171" stroke="none" target-height="11.299988" target-width="24.400024" target-x="569.3" target-y="312"></path><path d="M 434.90 341.80 L 413.70 340.40 L 412.60 339.20 L 412.70 337.60 L 413.20 336.90 L 414.70 336.40 L 435.00 337.50 L 436.40 338.20 L 436.90 339.70 L 436.30 341.10 L 434.90 341.80 Z" fill="#040000" fill-rule="nonzero" node-id="173" stroke="none" target-height="5.399994" target-width="24.299988" target-x="412.6" target-y="336.4"></path><path d="M 535.10 342.90 L 533.60 342.30 L 532.90 340.80 L 533.50 339.30 L 535.00 338.60 L 555.30 337.50 L 556.80 338.00 L 557.50 339.50 L 557.00 341.00 L 555.50 341.70 L 535.20 342.90 Z" fill="#040000" fill-rule="nonzero" node-id="175" stroke="none" target-height="5.399994" target-width="24.599976" target-x="532.9" target-y="337.5"></path><path d="M 446.60 337.50 L 442.60 337.20 L 438.80 336.50 L 435.10 335.20 L 431.60 333.50 L 428.40 331.30 L 425.50 328.80 L 422.90 325.90 L 420.80 322.70 L 419.00 319.10 L 417.70 315.20 L 416.90 311.40 L 416.70 307.60 L 417.00 303.70 L 417.70 299.90 L 419.00 296.30 L 420.70 292.80 L 422.80 289.50 L 425.50 286.50 L 428.50 283.90 L 431.70 281.70 L 435.20 280.00 L 438.90 278.80 L 442.60 278.00 L 446.50 277.70 L 450.40 278.00 L 454.20 278.70 L 458.00 280.00 L 461.60 281.80 L 464.80 284.00 L 467.80 286.50 L 470.30 289.50 L 472.40 292.70 L 474.10 296.10 L 475.40 299.80 L 476.20 303.60 L 476.50 307.60 L 476.20 311.70 L 475.40 315.60 L 474.10 319.20 L 472.40 322.70 L 470.20 325.90 L 467.70 328.70 L 464.80 331.30 L 461.70 333.40 L 458.20 335.10 L 454.50 336.40 L 450.70 337.20 L 446.60 337.50 Z M 446.60 282.00 L 443.10 282.30 L 439.80 282.90 L 436.60 284.00 L 433.70 285.50 L 430.90 287.40 L 428.50 289.50 L 426.30 292.00 L 424.50 294.70 L 423.00 297.70 L 421.90 300.80 L 421.20 304.10 L 421.00 307.60 L 421.20 311.10 L 421.90 314.40 L 423.00 317.60 L 424.50 320.60 L 426.30 323.30 L 428.50 325.70 L 430.90 327.90 L 433.70 329.70 L 436.60 331.20 L 439.80 332.30 L 443.10 333.00 L 446.60 333.20 L 450.10 333.00 L 453.40 332.30 L 456.60 331.20 L 459.50 329.70 L 462.20 327.90 L 464.70 325.70 L 466.90 323.30 L 468.70 320.60 L 470.20 317.60 L 471.30 314.40 L 471.90 311.10 L 472.20 307.60 L 471.90 304.10 L 471.30 300.80 L 470.20 297.70 L 468.70 294.70 L 466.90 292.00 L 464.70 289.50 L 462.20 287.30 L 459.50 285.50 L 456.60 284.00 L 453.40 282.90 L 450.10 282.20 L 446.60 282.00 Z" fill="#040000" fill-rule="nonzero" node-id="177" stroke="none" target-height="59.799988" target-width="59.799988" target-x="416.7" target-y="277.7"></path><path d="M 524.40 337.50 L 520.40 337.20 L 516.50 336.50 L 512.90 335.20 L 509.40 333.50 L 506.20 331.30 L 503.30 328.80 L 500.70 325.90 L 498.60 322.70 L 496.80 319.10 L 495.50 315.20 L 494.70 311.40 L 494.50 307.60 L 494.80 303.70 L 495.50 299.90 L 496.70 296.30 L 498.40 292.80 L 500.60 289.50 L 503.20 286.50 L 506.30 283.90 L 509.50 281.70 L 513.00 280.00 L 516.70 278.80 L 520.40 278.00 L 524.30 277.70 L 528.20 278.00 L 532.00 278.70 L 535.80 280.00 L 539.40 281.80 L 542.60 284.00 L 545.50 286.50 L 548.10 289.50 L 550.20 292.70 L 551.90 296.10 L 553.20 299.80 L 554.00 303.60 L 554.20 307.60 L 554.00 311.70 L 553.20 315.60 L 551.90 319.20 L 550.10 322.70 L 548.00 325.90 L 545.50 328.70 L 542.60 331.30 L 539.50 333.40 L 536.00 335.10 L 532.30 336.40 L 528.50 337.20 L 524.40 337.50 Z M 524.40 282.00 L 520.90 282.30 L 517.60 282.90 L 514.40 284.00 L 511.40 285.50 L 508.70 287.40 L 506.30 289.50 L 504.10 292.00 L 502.30 294.70 L 500.80 297.70 L 499.70 300.80 L 499.00 304.10 L 498.80 307.60 L 499.00 311.10 L 499.70 314.40 L 500.80 317.60 L 502.30 320.60 L 504.10 323.30 L 506.30 325.70 L 508.70 327.90 L 511.40 329.70 L 514.40 331.20 L 517.60 332.30 L 520.90 333.00 L 524.40 333.20 L 527.90 333.00 L 531.20 332.30 L 534.30 331.20 L 537.30 329.70 L 540.00 327.90 L 542.50 325.70 L 544.60 323.30 L 546.50 320.60 L 548.00 317.60 L 549.10 314.40 L 549.70 311.10 L 550.00 307.60 L 549.70 304.10 L 549.10 300.80 L 548.00 297.70 L 546.50 294.70 L 544.60 292.00 L 542.50 289.50 L 540.00 287.30 L 537.30 285.50 L 534.30 284.00 L 531.20 282.90 L 527.90 282.20 L 524.40 282.00 Z" fill="#040000" fill-rule="nonzero" node-id="179" stroke="none" target-height="59.799988" target-width="59.700012" target-x="494.5" target-y="277.7"></path><path d="M 474.30 311.90 L 473.00 311.50 L 472.30 310.40 L 472.30 309.00 L 473.10 308.00 L 477.90 305.60 L 480.90 304.60 L 484.20 304.00 L 488.90 304.00 L 493.60 305.20 L 495.80 306.50 L 498.10 308.20 L 498.70 309.60 L 498.10 311.10 L 497.50 311.60 L 495.90 311.70 L 493.00 309.80 L 490.90 308.80 L 488.70 308.30 L 485.40 308.20 L 482.30 308.70 L 479.50 309.50 L 474.30 311.90 Z" fill="#040000" fill-rule="nonzero" node-id="181" stroke="none" target-height="7.899994" target-width="26.400024" target-x="472.3" target-y="304"></path><path d="M 593.80 250.00 L 587.90 268.10 L 585.60 277.80 L 584.40 286.50 L 584.40 289.20 L 585.30 292.70 L 583.50 291.60 L 580.40 290.80 L 578.10 290.90 L 575.60 291.40 L 572.50 292.70 L 572.50 262.80 Z" fill="#040000" fill-rule="nonzero" node-id="183" stroke="none" target-height="42.700012" target-width="21.299988" target-x="572.5" target-y="250"></path><path d="M 380.40 250.00 L 386.30 268.10 L 388.70 277.80 L 389.80 286.50 L 389.80 289.20 L 389.00 292.70 L 390.70 291.60 L 393.90 290.80 L 396.20 290.90 L 398.60 291.40 L 401.80 292.70 L 401.80 262.80 Z" fill="#040000" fill-rule="nonzero" node-id="185" stroke="none" target-height="42.700012" target-width="21.399994" target-x="380.4" target-y="250"></path><path d="M 423.70 218.90 L 418.40 218.60 L 414.00 217.90 L 410.30 216.80 L 407.20 215.30 L 404.60 213.50 L 402.50 211.40 L 401.20 209.40 L 399.50 205.60 L 399.00 202.70 L 398.80 200.00 L 399.00 197.50 L 399.80 193.90 L 400.20 193.20 L 401.60 192.40 L 403.20 193.00 L 403.90 194.40 L 403.10 199.90 L 403.60 204.30 L 404.40 206.50 L 405.80 208.70 L 407.50 210.40 L 409.60 211.80 L 412.20 212.90 L 415.40 213.80 L 419.70 214.50 L 425.00 214.60 L 431.40 214.20 L 433.00 214.60 L 433.80 216.10 L 433.70 216.90 L 432.70 218.10 L 427.80 218.80 L 423.70 218.90 Z" fill="#fffdfd" fill-rule="nonzero" node-id="187" stroke="none" target-height="26.5" target-width="35" target-x="398.8" target-y="192.4"></path><path d="M 466.10 222.90 L 456.30 222.50 L 455.60 222.00 L 455.10 220.40 L 455.30 219.60 L 456.60 218.50 L 466.50 218.60 L 481.20 218.10 L 490.50 217.20 L 500.10 215.90 L 510.80 213.90 L 525.30 210.10 L 532.70 207.60 L 540.00 204.70 L 555.10 197.10 L 556.60 197.50 L 557.50 198.90 L 557.10 200.50 L 556.50 201.10 L 549.80 204.70 L 543.10 208.00 L 536.30 210.80 L 522.50 215.40 L 505.60 219.30 L 496.20 220.80 L 479.20 222.50 L 466.10 222.90 Z" fill="#fffdfd" fill-rule="nonzero" node-id="189" stroke="none" target-height="25.799988" target-width="102.399994" target-x="455.1" target-y="197.1"></path><path d="M 493.40 475.40 L 484.50 475.50 L 476.90 475.10 L 470.50 474.20 L 461.50 471.90 L 457.80 470.40 L 451.50 466.80 L 448.80 464.50 L 444.50 459.50 L 443.40 460.30 L 441.60 460.90 L 433.30 462.20 L 432.30 462.60 L 431.70 463.80 L 432.60 468.20 L 435.20 472.60 L 437.60 475.30 L 440.60 478.00 L 444.30 480.60 L 452.70 485.00 L 457.80 487.00 L 468.50 489.90 L 480.60 491.70 L 493.40 492.00 L 501.60 491.30 L 509.20 490.10 L 516.30 488.50 L 523.20 486.30 L 529.30 483.70 L 534.70 480.90 L 542.00 475.90 L 547.00 470.80 L 548.90 467.90 L 550.20 465.00 L 550.90 462.30 L 551.10 459.50 L 550.40 458.50 L 549.40 458.00 L 541.20 456.60 L 539.80 456.40 L 538.40 456.70 L 537.10 457.40 L 536.10 458.40 L 533.40 461.40 L 530.40 464.20 L 526.90 466.80 L 523.10 469.00 L 518.60 470.90 L 513.20 472.70 L 507.70 473.90 L 501.20 474.80 L 493.40 475.40 Z" fill="#040000" fill-rule="nonzero" node-id="191" stroke="none" target-height="35.600006" target-width="119.39996" target-x="431.7" target-y="456.4"></path><path d="M 761.10 404.30 L 758.90 404.10 L 756.80 403.40 L 754.60 402.10 L 752.50 400.30 L 750.30 397.70 L 745.80 391.00 L 743.80 388.70 L 742.00 387.30 L 740.40 386.50 L 738.90 386.20 L 737.10 386.60 L 733.90 388.60 L 732.70 390.00 L 729.00 395.20 L 724.50 400.00 L 721.50 401.90 L 718.60 403.10 L 715.90 403.70 L 713.20 403.70 L 710.60 403.00 L 708.00 401.80 L 705.40 399.90 L 700.10 394.50 L 697.80 392.80 L 695.80 391.80 L 693.90 391.50 L 691.90 391.90 L 690.20 392.70 L 682.90 399.70 L 680.80 401.10 L 676.40 402.90 L 671.90 403.30 L 667.90 402.30 L 663.90 400.00 L 659.60 396.10 L 657.70 395.00 L 655.90 394.40 L 654.10 394.40 L 651.70 395.00 L 649.70 396.10 L 647.90 397.60 L 644.80 401.00 L 643.30 401.30 L 641.90 400.40 L 641.50 398.80 L 641.90 398.00 L 645.20 394.20 L 648.90 391.50 L 651.10 390.60 L 653.70 390.10 L 655.90 390.10 L 658.10 390.60 L 660.30 391.50 L 662.50 392.90 L 666.80 396.80 L 668.70 398.00 L 670.70 398.70 L 672.80 399.00 L 674.90 398.80 L 677.10 398.20 L 679.30 397.00 L 681.60 395.10 L 685.90 390.60 L 688.10 388.90 L 691.70 387.50 L 693.90 387.30 L 696.10 387.60 L 698.50 388.30 L 700.90 389.70 L 703.40 391.70 L 708.30 396.90 L 710.50 398.40 L 712.70 399.30 L 714.80 399.50 L 717.00 399.20 L 719.30 398.30 L 721.80 396.70 L 723.90 394.70 L 728.40 388.50 L 731.70 384.90 L 735.30 382.70 L 738.80 382.00 L 741.00 382.20 L 743.00 383.00 L 745.00 384.20 L 747.20 386.10 L 749.40 388.70 L 753.80 395.40 L 755.80 397.60 L 757.70 399.00 L 759.40 399.80 L 761.10 400.00 L 762.60 399.80 L 765.40 398.50 L 768.90 395.10 L 771.60 391.50 L 773.10 391.10 L 774.50 391.90 L 775.00 393.40 L 774.80 394.20 L 770.90 399.40 L 766.60 402.70 L 763.10 404.10 L 761.20 404.30 Z" fill="#040000" fill-rule="nonzero" node-id="193" stroke="none" target-height="22.299988" target-width="133.5" target-x="641.5" target-y="382"></path><path d="M 761.10 429.60 L 758.90 429.40 L 756.80 428.70 L 754.60 427.40 L 752.50 425.60 L 750.30 423.10 L 745.80 416.30 L 743.80 414.10 L 742.00 412.60 L 740.40 411.80 L 738.90 411.60 L 737.10 411.90 L 733.90 413.90 L 732.70 415.30 L 729.00 420.50 L 724.50 425.30 L 721.50 427.30 L 718.60 428.50 L 715.90 429.00 L 713.20 429.00 L 710.60 428.40 L 708.00 427.10 L 705.40 425.20 L 700.10 419.80 L 697.80 418.10 L 695.80 417.20 L 693.90 416.90 L 691.90 417.20 L 690.20 418.00 L 682.90 425.00 L 680.80 426.50 L 676.40 428.20 L 671.90 428.60 L 667.90 427.70 L 663.90 425.30 L 659.60 421.40 L 657.70 420.30 L 655.90 419.80 L 654.10 419.70 L 651.70 420.30 L 649.70 421.40 L 647.90 422.90 L 644.80 426.30 L 643.30 426.60 L 641.90 425.70 L 641.50 424.10 L 641.90 423.30 L 645.20 419.50 L 648.90 416.90 L 651.10 415.90 L 653.70 415.40 L 655.90 415.40 L 658.10 415.90 L 660.30 416.80 L 662.50 418.20 L 666.80 422.10 L 668.70 423.30 L 670.70 424.00 L 672.80 424.30 L 674.90 424.10 L 677.10 423.50 L 679.30 422.40 L 681.60 420.50 L 685.90 415.90 L 688.10 414.20 L 691.70 412.80 L 693.90 412.60 L 696.10 412.80 L 698.50 413.60 L 700.90 414.90 L 703.40 417.00 L 708.30 422.20 L 710.50 423.70 L 712.70 424.60 L 714.80 424.80 L 717.00 424.50 L 719.30 423.60 L 721.80 421.90 L 723.90 420.00 L 728.40 413.80 L 731.70 410.20 L 735.30 407.90 L 738.90 407.30 L 741.00 407.50 L 743.00 408.20 L 745.00 409.50 L 747.20 411.40 L 749.40 414.00 L 753.80 420.70 L 755.80 422.90 L 757.70 424.30 L 759.40 425.10 L 761.10 425.30 L 762.60 425.10 L 765.40 423.70 L 768.90 420.40 L 771.60 416.80 L 773.10 416.40 L 774.50 417.20 L 775.00 418.70 L 774.80 419.50 L 770.90 424.60 L 766.60 428.00 L 763.10 429.40 L 761.20 429.60 Z" fill="#040000" fill-rule="nonzero" node-id="195" stroke="none" target-height="22.300018" target-width="133.5" target-x="641.5" target-y="407.3"></path><path d="M 293.60 219.20 L 293.30 222.50 L 292.40 225.60 L 291.10 228.50 L 289.20 231.10 L 287.10 233.30 L 284.50 235.10 L 281.60 236.50 L 278.50 237.30 L 275.20 237.60 L 271.80 237.30 L 268.70 236.50 L 265.90 235.10 L 263.30 233.30 L 261.10 231.10 L 259.20 228.50 L 257.90 225.60 L 257.00 222.50 L 256.70 219.20 L 257.00 215.80 L 257.90 212.70 L 259.20 209.90 L 261.10 207.30 L 263.30 205.10 L 265.90 203.30 L 268.70 201.90 L 271.80 201.10 L 275.20 200.70 L 278.50 201.10 L 281.60 201.90 L 284.50 203.30 L 287.10 205.10 L 289.20 207.30 L 291.10 209.90 L 292.40 212.70 L 293.30 215.80 L 293.60 219.20 Z" fill="#ffffff" fill-rule="nonzero" node-id="197" stroke="none" target-height="36.90001" target-width="36.899994" target-x="256.7" target-y="200.7"></path><path d="M 275.20 239.80 L 271.40 239.40 L 268.00 238.50 L 264.80 237.00 L 261.90 234.90 L 259.40 232.50 L 257.40 229.60 L 255.90 226.40 L 254.90 222.90 L 254.60 219.20 L 254.90 215.40 L 255.90 212.00 L 257.40 208.80 L 259.40 205.90 L 261.90 203.50 L 264.80 201.40 L 268.00 199.90 L 271.40 198.90 L 275.20 198.60 L 278.90 198.90 L 282.40 199.90 L 285.50 201.40 L 288.40 203.50 L 290.90 205.90 L 292.90 208.80 L 294.50 212.00 L 295.40 215.40 L 295.70 219.20 L 295.40 222.90 L 294.40 226.40 L 292.90 229.60 L 290.90 232.40 L 288.40 234.90 L 285.50 236.90 L 282.40 238.50 L 278.90 239.40 L 275.20 239.80 Z M 275.20 202.90 L 272.20 203.10 L 269.50 203.90 L 266.90 205.10 L 264.60 206.70 L 262.70 208.70 L 261.10 210.90 L 259.90 213.50 L 259.10 216.20 L 258.90 219.20 L 259.10 222.20 L 259.90 224.90 L 261.10 227.40 L 262.70 229.70 L 264.60 231.60 L 266.90 233.30 L 269.50 234.50 L 272.20 235.20 L 275.20 235.50 L 278.10 235.20 L 280.90 234.50 L 283.40 233.30 L 285.70 231.60 L 287.60 229.70 L 289.20 227.40 L 290.40 224.90 L 291.20 222.20 L 291.50 219.20 L 291.20 216.20 L 290.40 213.50 L 289.20 211.00 L 287.60 208.70 L 285.70 206.70 L 283.40 205.10 L 280.90 203.90 L 278.10 203.20 L 275.20 202.90 Z" fill="#040000" fill-rule="nonzero" node-id="199" stroke="none" target-height="41.199997" target-width="41.100006" target-x="254.6" target-y="198.6"></path><path d="M 486.00 358.80 L 479.70 358.10 L 473.80 356.00 L 471.10 354.40 L 468.60 352.50 L 468.20 351.80 L 468.30 350.30 L 468.70 349.60 L 470.10 349.00 L 470.90 349.10 L 474.80 351.80 L 477.30 353.00 L 480.10 353.90 L 486.20 354.60 L 492.40 353.80 L 499.10 351.30 L 503.90 348.90 L 505.50 349.30 L 506.30 350.70 L 505.90 352.30 L 501.50 354.90 L 494.90 357.50 L 491.60 358.20 L 486.00 358.80 Z" fill="#040000" fill-rule="nonzero" node-id="201" stroke="none" target-height="9.899994" target-width="38.099976" target-x="468.2" target-y="348.9"></path><path d="M 423.10 273.90 L 421.90 273.50 L 421.00 272.20 L 421.30 270.50 L 422.80 268.70 L 427.30 264.50 L 430.20 262.60 L 434.60 260.80 L 439.60 260.20 L 442.30 260.50 L 445.10 261.20 L 445.90 261.60 L 446.60 263.00 L 446.10 264.60 L 444.60 265.30 L 441.00 264.60 L 438.50 264.50 L 434.00 265.50 L 430.30 267.50 L 428.00 269.40 L 424.10 273.60 L 423.10 273.90 Z" fill="#040000" fill-rule="nonzero" node-id="203" stroke="none" target-height="13.699982" target-width="25.600006" target-x="421" target-y="260.2"></path><path d="M 546.90 273.90 L 546.10 273.80 L 545.10 272.90 L 543.40 268.90 L 542.10 267.00 L 540.40 265.20 L 538.20 263.80 L 536.40 263.20 L 534.40 263.00 L 532.10 263.20 L 529.50 263.90 L 526.50 265.10 L 525.40 265.40 L 524.30 265.00 L 523.50 264.20 L 523.30 263.10 L 523.70 262.00 L 524.60 261.30 L 528.30 259.80 L 531.60 258.90 L 534.70 258.70 L 537.40 259.00 L 540.00 259.90 L 542.40 261.30 L 544.30 263.00 L 547.00 266.60 L 548.90 271.20 L 548.70 272.90 L 548.10 273.50 L 546.90 273.90 Z" fill="#040000" fill-rule="nonzero" node-id="205" stroke="none" target-height="15.199982" target-width="25.600037" target-x="523.3" target-y="258.7"></path><path d="M 778.40 634.00 L 708.30 707.60 L 706.40 708.90 L 702.10 710.60 L 697.60 711.20 L 693.00 710.40 L 688.80 708.50 L 687.00 707.10 L 635.50 648.50 L 629.40 641.10 L 623.80 633.40 L 618.70 625.40 L 614.20 617.10 L 610.10 608.50 L 606.70 599.80 L 603.80 590.90 L 601.40 581.70 L 599.70 572.40 L 598.60 563.10 L 598.10 553.60 L 598.20 544.00 L 599.60 531.40 L 600.70 525.50 L 602.30 519.70 L 604.40 514.30 L 606.90 509.30 L 611.50 502.50 L 614.30 499.40 L 617.40 496.70 L 620.80 494.30 L 624.50 492.20 L 628.70 490.40 L 633.40 488.90 L 638.10 487.90 L 642.80 487.30 L 647.50 487.10 L 652.20 487.40 L 656.80 488.10 L 662.50 489.40 L 668.30 491.20 L 674.00 493.50 L 679.80 496.40 L 687.10 500.90 L 694.40 506.00 L 701.70 511.80 L 708.70 518.10 L 715.50 524.70 L 722.20 531.90 L 731.80 543.00 L 740.80 554.40 L 749.40 565.90 L 764.30 587.90 L 780.50 613.60 L 782.50 618.10 L 783.00 623.00 L 782.20 627.70 L 780.00 632.00 L 778.40 634.00 Z" fill="#040000" fill-rule="nonzero" node-id="207" stroke="none" target-height="224.1" target-width="184.90002" target-x="598.1" target-y="487.1"></path><path d="M 585.30 903.20 L 582.00 905.10 L 579.90 906.80 L 578.70 908.30 L 577.90 910.00 L 577.70 911.50 L 577.90 912.90 L 578.80 914.90 L 580.30 916.70 L 582.10 918.30 L 585.30 920.30 L 584.30 922.80 L 583.60 926.20 L 583.70 927.70 L 584.60 929.70 L 586.90 931.50 L 590.30 932.10 L 592.20 935.10 L 593.70 936.20 L 596.10 937.50 L 601.90 938.80 L 604.60 939.00 L 612.60 938.70 L 619.80 941.20 L 622.10 941.60 L 625.70 941.30 L 628.00 940.70 L 637.60 936.80 L 646.80 932.70 L 655.40 928.20 L 663.60 923.40 L 671.60 918.20 L 679.20 912.70 L 686.30 907.00 L 693.00 901.00 L 699.40 894.70 L 705.40 888.20 L 711.00 881.40 L 727.70 860.20 L 738.80 845.50 L 749.50 830.60 L 769.40 801.20 L 787.00 773.20 L 807.90 737.20 L 810.60 731.90 L 812.60 726.50 L 814.10 721.00 L 815.10 715.40 L 815.60 709.70 L 815.60 704.10 L 815.00 698.50 L 813.90 692.90 L 812.20 687.50 L 810.10 682.20 L 807.40 677.10 L 804.20 672.10 L 755.90 604.70 L 701.40 658.60 L 735.90 710.20 L 737.40 713.10 L 738.30 716.00 L 738.70 719.10 L 738.60 722.20 L 737.80 725.30 L 736.50 728.20 L 679.10 835.00 L 676.10 839.90 L 671.70 845.80 L 669.20 848.50 L 665.00 851.50 L 663.50 852.00 L 662.10 852.00 L 656.10 851.20 L 647.60 850.80 L 642.90 851.00 L 634.50 852.30 L 628.10 854.60 L 625.00 856.20 L 622.10 858.20 L 619.40 860.50 L 610.50 861.70 L 598.10 864.50 L 590.50 867.40 L 587.80 869.10 L 586.40 870.50 L 585.50 871.90 L 585.20 875.60 L 585.60 877.10 L 586.50 878.50 L 588.10 880.00 L 591.20 881.50 L 596.20 882.30 L 603.80 882.00 L 613.30 880.40 L 619.70 878.70 L 620.50 878.80 L 621.10 879.30 L 621.30 880.00 L 618.40 883.40 L 611.40 889.70 L 602.40 896.00 L 593.40 900.50 L 585.30 903.20 Z" fill="#ffffff" fill-rule="nonzero" node-id="209" stroke="none" target-height="336.89996" target-width="237.89996" target-x="577.7" target-y="604.7"></path><path d="M 622.90 943.80 L 617.80 942.80 L 612.20 940.80 L 604.50 941.10 L 598.70 940.40 L 595.70 939.50 L 591.40 937.20 L 588.90 934.10 L 585.40 933.10 L 582.70 930.70 L 581.80 928.90 L 581.50 926.80 L 581.70 924.30 L 582.60 921.20 L 579.60 919.00 L 578.10 917.50 L 576.80 915.70 L 575.90 913.70 L 575.60 911.50 L 575.80 909.40 L 576.70 907.40 L 578.30 905.40 L 580.80 903.40 L 584.30 901.30 L 590.30 899.50 L 595.90 897.10 L 601.40 894.10 L 606.70 890.60 L 611.90 886.50 L 617.00 881.70 L 609.00 883.40 L 602.50 884.30 L 597.30 884.50 L 593.20 884.10 L 590.00 883.40 L 587.50 882.20 L 585.60 880.80 L 584.30 879.10 L 583.40 877.20 L 583.00 875.20 L 583.60 871.20 L 584.60 869.40 L 586.30 867.70 L 590.70 865.00 L 593.60 863.70 L 603.00 861.00 L 612.00 859.30 L 618.40 858.50 L 624.10 854.30 L 627.20 852.70 L 632.00 850.90 L 637.00 849.70 L 642.00 849.00 L 646.90 848.70 L 651.60 848.70 L 662.40 849.90 L 663.70 849.80 L 665.50 848.80 L 669.40 845.20 L 675.50 837.00 L 734.60 727.20 L 735.80 724.60 L 736.50 722.00 L 736.60 719.20 L 736.30 716.50 L 735.50 713.90 L 734.10 711.40 L 698.60 658.30 L 756.10 601.40 L 806.00 670.90 L 809.30 676.00 L 812.00 681.30 L 814.20 686.80 L 815.90 692.40 L 817.10 698.20 L 817.70 704.00 L 817.70 709.80 L 817.20 715.70 L 816.20 721.50 L 814.70 727.20 L 812.50 732.70 L 809.80 738.20 L 790.40 771.60 L 772.90 799.60 L 763.00 814.70 L 741.50 845.40 L 729.90 860.80 L 712.20 883.40 L 706.10 890.60 L 699.80 897.40 L 693.10 903.90 L 686.20 910.00 L 678.90 915.70 L 671.30 921.10 L 663.50 926.10 L 655.30 930.70 L 646.80 935.10 L 637.90 939.00 L 628.70 942.70 L 625.80 943.50 L 622.90 943.80 Z M 612.00 936.50 L 614.60 936.90 L 621.40 939.40 L 625.00 939.30 L 636.30 935.10 L 644.90 931.20 L 653.30 927.00 L 661.30 922.40 L 668.90 917.50 L 676.30 912.30 L 683.40 906.70 L 690.30 900.70 L 696.80 894.40 L 703.00 887.70 L 708.90 880.70 L 726.50 858.20 L 738.00 842.90 L 749.10 827.50 L 759.50 812.30 L 778.30 783.20 L 794.00 757.20 L 806.10 736.10 L 808.60 731.00 L 810.60 725.80 L 812.10 720.50 L 813.00 715.10 L 813.50 709.70 L 813.40 704.20 L 812.80 698.80 L 811.80 693.40 L 810.20 688.20 L 808.20 683.10 L 805.60 678.10 L 802.50 673.40 L 755.60 608.00 L 704.10 658.90 L 737.60 709.00 L 740.00 713.90 L 740.60 716.40 L 740.80 721.70 L 739.50 726.80 L 738.30 729.30 L 679.40 838.80 L 676.10 843.70 L 671.70 849.00 L 669.20 851.30 L 665.00 853.80 L 663.30 854.20 L 661.70 854.20 L 653.50 853.20 L 648.30 853.00 L 642.50 853.20 L 634.80 854.60 L 631.00 855.80 L 627.40 857.40 L 624.00 859.50 L 620.40 862.60 L 608.00 864.30 L 597.70 866.90 L 593.30 868.40 L 590.20 870.00 L 588.50 871.20 L 587.70 872.30 L 587.30 875.00 L 588.00 877.00 L 589.60 878.50 L 593.50 879.90 L 596.70 880.30 L 600.40 880.20 L 605.70 879.70 L 620.20 876.60 L 622.20 877.40 L 623.30 879.20 L 623.10 881.30 L 622.50 882.20 L 618.20 886.50 L 609.50 893.90 L 600.30 899.70 L 595.50 901.90 L 590.80 903.80 L 586.00 905.20 L 583.10 906.90 L 580.80 909.00 L 580.10 910.20 L 579.80 911.40 L 580.10 912.90 L 582.40 915.70 L 583.80 916.90 L 588.10 919.30 L 586.20 923.60 L 585.80 925.50 L 585.80 927.20 L 586.20 928.40 L 586.90 929.00 L 589.40 929.90 L 591.80 929.90 L 593.00 932.60 L 593.90 933.70 L 597.40 935.60 L 599.90 936.30 L 604.90 936.80 L 612.00 936.50 Z" fill="#040000" fill-rule="nonzero" node-id="211" stroke="none" target-height="342.39996" target-width="242.10004" target-x="575.6" target-y="601.4"></path><path d="M 393.30 455.70 L 397.40 457.30 L 403.00 460.30 L 407.60 464.10 L 410.30 468.00 L 404.60 469.30 L 397.50 472.30 Z" fill="#ffffff" fill-rule="nonzero" node-id="213" stroke="none" target-height="16.599976" target-width="17" target-x="393.3" target-y="455.7"></path><path d="M 397.50 474.40 L 396.60 474.20 L 395.90 473.70 L 395.50 472.80 L 391.20 456.20 L 391.20 455.10 L 391.80 454.10 L 392.80 453.60 L 393.90 453.60 L 398.60 455.40 L 404.50 458.80 L 409.30 462.90 L 412.20 467.10 L 412.50 468.10 L 412.10 469.10 L 411.40 469.90 L 405.00 471.40 L 397.50 474.40 Z M 396.30 459.10 L 398.90 469.30 L 406.80 466.40 L 404.40 464.00 L 401.70 462.00 L 396.30 459.10 Z" fill="#040000" fill-rule="nonzero" node-id="215" stroke="none" target-height="20.799988" target-width="21.299988" target-x="391.2" target-y="453.6"></path><path d="M 585.30 922.40 L 584.40 922.30 L 583.30 921.20 L 583.20 919.60 L 584.20 918.40 L 596.20 915.90 L 601.10 914.50 L 612.20 910.60 L 620.80 906.10 L 626.40 901.70 L 627.90 901.20 L 629.30 901.80 L 629.70 902.50 L 629.80 904.00 L 629.40 904.70 L 623.50 909.50 L 619.90 911.60 L 614.40 914.30 L 602.90 918.50 L 597.70 919.90 L 585.30 922.40 Z" fill="#040000" fill-rule="nonzero" node-id="217" stroke="none" target-height="21.200012" target-width="46.599976" target-x="583.2" target-y="901.2"></path><path d="M 590.30 934.20 L 589.50 934.10 L 588.40 933.10 L 588.30 931.50 L 589.10 930.30 L 607.90 924.70 L 617.90 920.80 L 627.40 915.90 L 631.60 913.10 L 635.60 909.90 L 637.10 910.00 L 638.20 911.10 L 638.30 912.60 L 637.90 913.30 L 631.90 918.10 L 628.10 920.40 L 622.30 923.50 L 609.80 928.50 L 604.20 930.40 L 590.30 934.20 Z" fill="#040000" fill-rule="nonzero" node-id="219" stroke="none" target-height="24.299988" target-width="50" target-x="588.3" target-y="909.9"></path><path d="M 611.00 940.90 L 610.20 940.70 L 609.10 939.70 L 608.90 938.20 L 609.80 937.00 L 616.50 934.80 L 622.40 932.50 L 628.00 929.70 L 633.40 926.50 L 644.20 918.40 L 645.70 918.50 L 646.80 919.60 L 646.80 921.10 L 646.50 921.80 L 641.30 926.10 L 635.90 930.00 L 630.10 933.40 L 624.20 936.40 L 618.00 938.80 L 611.00 940.90 Z" fill="#040000" fill-rule="nonzero" node-id="221" stroke="none" target-height="22.5" target-width="37.899963" target-x="608.9" target-y="918.4"></path><path d="M 721.80 694.20 L 777.30 634.40 L 760.20 596.00 L 721.80 596.00 L 696.20 625.90 L 696.20 651.50 L 721.80 694.20 Z" fill="#040000" fill-rule="nonzero" node-id="223" stroke="none" target-height="98.20001" target-width="81.099976" target-x="696.2" target-y="596"></path><path d="M 218.90 740.30 L 229.80 735.10 L 243.90 729.80 L 251.80 727.50 L 260.30 725.60 L 272.10 723.90 L 284.40 723.60 L 290.50 724.00 L 296.80 725.00 L 299.00 725.60 L 303.00 728.00 L 306.10 731.50 L 307.20 733.70 L 308.70 738.40 L 308.90 741.10 L 312.20 912.40 L 312.00 915.50 L 311.40 918.20 L 310.40 920.80 L 308.90 923.20 L 307.20 925.20 L 305.20 926.90 L 303.00 928.20 L 300.60 929.10 L 297.90 929.40 L 232.20 932.40 L 229.50 932.20 L 227.00 931.60 L 224.70 930.50 L 222.50 928.90 L 220.70 927.00 L 219.10 924.80 L 217.90 922.20 L 217.10 919.50 L 216.80 916.50 L 210.30 756.20 L 210.40 752.80 L 211.20 749.70 L 212.40 746.70 L 214.10 744.20 L 216.30 742.00 L 218.90 740.30 Z" fill="#040000" fill-rule="nonzero" node-id="225" stroke="none" target-height="208.80005" target-width="101.90001" target-x="210.3" target-y="723.6"></path><path d="M 231.60 934.60 L 228.60 934.30 L 225.80 933.40 L 223.10 932.10 L 220.80 930.20 L 217.50 926.30 L 215.50 921.60 L 214.90 919.20 L 208.10 756.30 L 208.50 751.30 L 210.00 746.70 L 212.50 742.80 L 214.10 741.10 L 217.90 738.40 L 229.40 733.00 L 243.80 727.60 L 251.90 725.30 L 260.50 723.40 L 266.30 722.40 L 278.50 721.40 L 284.70 721.40 L 290.90 721.90 L 297.20 722.90 L 299.70 723.60 L 302.10 724.70 L 304.20 726.20 L 307.80 730.20 L 310.10 735.20 L 310.80 738.00 L 311.10 741.00 L 314.30 912.40 L 314.10 915.80 L 313.40 918.90 L 312.20 921.80 L 310.60 924.50 L 308.60 926.80 L 306.40 928.70 L 303.80 930.20 L 301.00 931.20 L 298.00 931.60 L 232.30 934.60 Z M 219.80 742.20 L 217.60 743.70 L 215.80 745.50 L 214.30 747.80 L 213.20 750.40 L 212.60 753.10 L 212.40 756.10 L 218.90 916.40 L 219.30 919.40 L 220.20 922.20 L 221.70 924.80 L 223.70 927.10 L 225.50 928.50 L 227.60 929.60 L 229.80 930.10 L 232.10 930.30 L 297.80 927.40 L 300.10 927.00 L 302.10 926.30 L 304.10 925.10 L 307.30 921.80 L 309.40 917.50 L 310.10 912.50 L 306.80 741.10 L 306.60 738.80 L 305.30 734.60 L 304.30 732.70 L 301.70 729.70 L 300.00 728.50 L 296.40 727.10 L 290.30 726.20 L 284.40 725.70 L 272.50 726.00 L 261.00 727.60 L 252.70 729.50 L 245.00 731.70 L 231.00 737.00 L 219.80 742.20 Z" fill="#040000" fill-rule="nonzero" node-id="227" stroke="none" target-height="213.19995" target-width="106.19998" target-x="208.1" target-y="721.4"></path><path d="M 701.50 276.70 L 700.20 276.20 L 699.40 274.90 L 699.70 273.40 L 700.90 272.50 L 745.70 258.40 L 747.20 258.60 L 748.20 259.80 L 748.10 261.40 L 746.90 262.40 L 701.50 276.70 Z" fill="#040000" fill-rule="nonzero" node-id="229" stroke="none" target-height="18.300018" target-width="48.799988" target-x="699.4" target-y="258.4"></path><path d="M 731.00 292.00 L 729.80 291.60 L 729.00 290.50 L 714.80 245.80 L 714.90 244.10 L 716.20 243.10 L 717.80 243.20 L 718.90 244.50 L 733.00 289.20 L 732.90 290.80 L 732.30 291.50 L 731.00 292.00 Z" fill="#040000" fill-rule="nonzero" node-id="231" stroke="none" target-height="48.899994" target-width="18.200012" target-x="714.8" target-y="243.1"></path><path d="M 435.90 310.20 L 438.90 308.60 L 443.80 307.00 L 447.00 306.50 L 450.30 306.40 L 453.90 306.90 L 456.40 307.60 L 461.50 310.20" fill="#ffffff" fill-rule="nonzero" node-id="233" stroke="none" target-height="3.8000183" target-width="25.600006" target-x="435.9" target-y="306.4"></path><path d="M 461.50 312.30 L 454.50 309.20 L 449.10 308.50 L 444.50 309.00 L 441.30 309.90 L 436.30 312.30 L 434.70 311.90 L 433.80 310.50 L 434.10 309.00 L 434.70 308.40 L 438.30 306.50 L 443.70 304.80 L 447.10 304.30 L 450.60 304.20 L 454.60 304.80 L 457.20 305.60 L 459.90 306.70 L 463.30 309.00 L 463.70 309.80 L 463.30 311.40 L 462.50 312.10 L 461.50 312.30 Z" fill="#040000" fill-rule="nonzero" node-id="235" stroke="none" target-height="8.099976" target-width="29.900024" target-x="433.8" target-y="304.2"></path><path d="M 534.10 310.20 L 531.10 308.60 L 526.10 307.00 L 523.00 306.50 L 519.70 306.40 L 516.00 306.90 L 513.60 307.60 L 508.50 310.20" fill="#ffffff" fill-rule="nonzero" node-id="237" stroke="none" target-height="3.8000183" target-width="25.599976" target-x="508.5" target-y="306.4"></path><path d="M 508.50 312.30 L 507.20 311.90 L 506.40 310.80 L 506.40 309.40 L 507.30 308.40 L 512.80 305.60 L 515.40 304.80 L 519.40 304.20 L 522.90 304.30 L 526.30 304.80 L 529.10 305.60 L 533.50 307.30 L 535.30 308.40 L 536.20 309.70 L 535.90 311.30 L 535.30 311.90 L 533.70 312.30 L 528.50 309.80 L 525.40 309.00 L 520.80 308.50 L 515.40 309.20 L 508.50 312.30 Z" fill="#040000" fill-rule="nonzero" node-id="239" stroke="none" target-height="8.099976" target-width="29.800018" target-x="506.4" target-y="304.2"></path><path d="M 717.50 150.20 L 716.80 150.00 L 715.70 149.10 L 715.40 148.30 L 715.70 146.90 L 716.20 146.30 L 719.90 144.70 L 722.90 143.00 L 725.70 140.70 L 729.50 136.80 L 732.80 132.40 L 735.80 127.80 L 738.20 123.40 L 742.80 113.20 L 743.10 112.60 L 744.20 111.80 L 745.60 111.90 L 746.20 112.20 L 748.90 117.40 L 750.30 118.90 L 752.90 120.90 L 755.80 122.30 L 758.90 123.40 L 761.80 124.10 L 769.50 125.10 L 770.60 126.20 L 770.70 127.00 L 770.20 128.50 L 768.80 129.20 L 766.60 129.10 L 762.00 128.50 L 756.00 127.00 L 752.90 125.70 L 749.90 124.00 L 746.40 121.10 L 745.00 119.30 L 741.10 127.10 L 738.50 131.60 L 732.90 139.30 L 727.60 144.70 L 724.60 146.90 L 721.50 148.70 L 717.50 150.20 Z" fill="#040000" fill-rule="nonzero" node-id="241" stroke="none" target-height="38.399994" target-width="55.299988" target-x="715.4" target-y="111.8"></path><path d="M 721.80 152.30 L 721.60 155.10 L 720.20 160.50 L 717.40 165.20 L 715.50 167.40 L 713.40 169.20 L 708.60 172.00 L 703.30 173.40 L 700.50 173.60 L 697.60 173.40 L 692.30 172.00 L 687.50 169.20 L 685.40 167.40 L 682.00 162.90 L 679.80 157.80 L 679.30 155.10 L 679.10 152.30 L 679.80 146.80 L 682.00 141.60 L 685.40 137.20 L 687.50 135.30 L 692.30 132.60 L 697.60 131.10 L 700.50 131.00 L 703.30 131.10 L 708.60 132.60 L 713.40 135.30 L 715.50 137.20 L 717.40 139.30 L 720.20 144.10 L 721.60 149.50 L 721.80 152.30 Z" fill="#ffffff" fill-rule="nonzero" node-id="243" stroke="none" target-height="42.600006" target-width="42.700012" target-x="679.1" target-y="131"></path><path d="M 700.50 175.80 L 697.20 175.50 L 694.20 174.90 L 691.30 173.90 L 688.60 172.50 L 683.90 168.90 L 680.20 164.10 L 678.80 161.40 L 677.80 158.50 L 677.20 155.50 L 677.00 152.30 L 677.20 149.10 L 677.80 146.00 L 678.80 143.20 L 681.90 138.00 L 686.10 133.70 L 688.60 132.00 L 694.20 129.70 L 697.20 129.00 L 700.50 128.80 L 703.70 129.00 L 706.70 129.70 L 709.60 130.70 L 714.80 133.70 L 719.00 138.00 L 722.10 143.20 L 723.10 146.00 L 723.70 149.10 L 723.90 152.30 L 723.70 155.50 L 723.10 158.50 L 722.10 161.40 L 720.70 164.10 L 717.00 168.90 L 712.30 172.50 L 709.60 173.90 L 706.70 174.90 L 703.70 175.50 L 700.50 175.80 Z M 700.50 133.10 L 696.90 133.40 L 693.70 134.30 L 690.80 135.70 L 688.10 137.60 L 685.80 139.90 L 683.90 142.60 L 682.50 145.60 L 681.60 148.80 L 681.30 152.30 L 681.60 155.80 L 682.50 159.00 L 683.90 162.00 L 685.80 164.70 L 688.10 167.00 L 690.80 168.90 L 693.70 170.30 L 696.90 171.20 L 700.50 171.50 L 704.00 171.20 L 707.20 170.30 L 710.10 168.90 L 712.80 167.00 L 715.10 164.70 L 717.00 162.00 L 718.40 159.00 L 719.30 155.80 L 719.70 152.30 L 719.30 148.80 L 718.40 145.60 L 717.00 142.60 L 715.10 139.90 L 712.80 137.60 L 710.10 135.70 L 707.20 134.30 L 704.00 133.40 L 700.50 133.10 Z" fill="#040000" fill-rule="nonzero" node-id="245" stroke="none" target-height="47" target-width="46.900024" target-x="677" target-y="128.8"></path><path d="M 205.10 451.40 L 203.90 451.00 L 203.10 450.00 L 203.00 448.80 L 203.60 447.70 L 212.30 440.70 L 221.00 434.70 L 231.40 429.10 L 237.00 426.80 L 242.70 425.00 L 246.60 424.30 L 250.40 424.00 L 254.10 424.00 L 257.50 424.60 L 260.80 425.50 L 263.80 427.00 L 266.70 428.80 L 269.20 431.10 L 271.40 433.70 L 271.90 435.30 L 271.00 436.70 L 270.30 437.10 L 268.70 436.90 L 264.10 432.30 L 261.80 430.70 L 259.20 429.50 L 256.60 428.70 L 253.70 428.30 L 250.30 428.30 L 243.20 429.30 L 237.90 431.00 L 232.50 433.30 L 227.40 436.00 L 218.10 441.80 L 206.50 450.90 L 205.10 451.40 Z" fill="#040000" fill-rule="nonzero" node-id="247" stroke="none" target-height="27.399994" target-width="68.899994" target-x="203" target-y="424"></path><path d="M 254.00 504.80 L 252.40 504.00 L 251.90 502.40 L 252.20 501.60 L 256.90 494.40 L 259.10 491.60 L 264.50 485.80 L 267.60 483.30 L 269.80 481.90 L 274.30 480.10 L 276.60 479.70 L 278.90 479.80 L 281.30 480.50 L 282.00 480.90 L 282.70 482.40 L 282.10 484.00 L 280.60 484.60 L 278.00 484.00 L 276.10 484.10 L 274.20 484.50 L 271.40 485.90 L 268.50 487.90 L 265.80 490.30 L 260.90 496.10 L 255.90 503.70 L 255.10 504.50 L 254.00 504.80 Z" fill="#040000" fill-rule="nonzero" node-id="249" stroke="none" target-height="25.099976" target-width="30.800018" target-x="251.9" target-y="479.7"></path><path d="M 271.40 398.80 L 270.50 398.60 L 269.70 397.90 L 266.30 394.00 L 262.80 390.60 L 259.20 387.80 L 251.50 383.40 L 247.70 381.90 L 241.80 380.20 L 236.40 379.10 L 226.70 378.50 L 216.30 379.30 L 215.00 378.40 L 214.70 376.70 L 215.50 375.40 L 216.30 375.10 L 222.20 374.40 L 226.60 374.20 L 237.10 375.00 L 245.00 376.60 L 253.40 379.60 L 257.50 381.80 L 261.70 384.40 L 265.60 387.40 L 269.40 391.00 L 273.50 396.10 L 273.30 397.70 L 272.70 398.40 L 271.40 398.80 Z" fill="#040000" fill-rule="nonzero" node-id="251" stroke="none" target-height="24.599976" target-width="58.800003" target-x="214.7" target-y="374.2"></path></svg>